<svg id="Capa_1" enable-background="new 0 0 512.009 512.009" height="512" viewBox="0 0 512.009 512.009" width="512" xmlns="http://www.w3.org/2000/svg"><g><path d="m287.802 246.341c-1.822 2.68-.775 6.357 2.187 7.674l8.215 3.653c2.447 1.088 5.24 1.088 7.687 0l8.215-3.653c2.962-1.317 4.009-4.993 2.187-7.674-1.349-1.985-3.372-3.413-5.694-4.021-5.606-1.468-11.496-1.468-17.103 0-2.321.608-4.344 2.037-5.694 4.021zm26.111 27.814c-2.996 3.437-7.32 5.409-11.865 5.409s-8.869-1.972-11.865-5.409c-2.721-3.124-7.46-3.448-10.581-.727-3.123 2.721-3.448 7.459-.727 10.582 5.845 6.707 14.292 10.554 23.173 10.554 8.882 0 17.329-3.847 23.174-10.554 2.721-3.123 2.396-7.86-.727-10.582-3.123-2.721-7.861-2.397-10.582.727zm119.088-270.139c-34.369-12.509-72.31 5.179-84.821 39.553-8.946 24.579-15.378 48.948-18.784 71.028-17.604-2.986-36.23-3.132-54.695 0-3.407-22.078-9.838-46.448-18.785-71.028-12.51-34.369-50.447-52.064-84.821-39.553-34.368 12.509-52.065 50.448-39.553 84.821 12.286 33.755 27.872 63.954 44.224 85.807-31.017 42.123-33.466 94.533-17.639 129.103-13.574 9.006-25.214 19.754-34.504 31.693-3.17-.93-6.509-1.271-9.853-.949-10.226-15.78-33.466-15.803-43.707-.001-18.723-1.849-33.221 16.307-27.249 34.169-13.123 13.496-7.958 36.143 9.726 42.61 1.067 8.321 6.007 15.56 13.449 19.58 3.87 2.091 8.19 3.217 12.778 3.161-1.514 35.667 22.189 66.457 55.052 75.387 3.999 1.085 8.118-1.274 9.205-5.271 1.086-3.998-1.274-8.118-5.271-9.205-25.946-7.05-44.067-30.778-44.067-57.702 0-32.968 26.821-59.789 59.789-59.789 39.928 0 68.85 38.673 57.23 77.115-1.328 4.396 1.575 8.948 6.124 9.595 14.922 2.122 26.175 15.106 26.175 30.202 0 1.47-1.196 2.666-2.665 2.666h-69.833c-4.142 0-7.5 3.358-7.5 7.5s3.358 7.5 7.5 7.5h69.833c9.741 0 17.665-7.925 17.665-17.665 0-2.461-.201-4.884-.587-7.252 6.506-2.105 12.669-4.451 19.315-7.39 3.456 6.548 7.344 12.695 11.594 18.213 12.167 15.796 34.912 18.742 50.704 6.582 15.793-12.164 18.746-34.91 6.582-50.704-.738-.958-2.071-2.811-3.618-5.439 8.663 3.011 17.38 5.124 25.809 6.218 19.811 2.572 37.945-11.473 40.507-31.199 2.566-19.769-11.43-37.941-31.199-40.507-2.024-.263-8.518-1.332-16.661-4.84.266-5.443.008-10.9-.786-16.336 56.439-13.151 95.822-46.915 95.822-105.304 0-30.335-10.044-58.504-27.16-81.747 6.609-8.828 13.11-19.021 19.37-30.409 1.996-3.63.67-8.19-2.959-10.186-3.633-1.996-8.19-.67-10.186 2.959-5.227 9.508-10.603 18.111-16.045 25.679-11.77-12.881-25.917-23.79-41.795-32.13 16.533-50.94 45.017-101.098 71.765-98.487 12.156 13.617 16.649 33.322 9.981 51.642-2.708 7.44-5.634 14.83-8.697 21.965-1.634 3.806.127 8.216 3.933 9.85 3.805 1.634 8.216-.126 9.85-3.933 3.174-7.393 6.205-15.048 9.009-22.752 12.503-34.347-5.331-72.364-39.551-84.82zm-332.32 380.283c-9.375 9.353-16.286 21.172-19.669 34.39-6.26 1.53-13.175-2.741-13.663-10.032-.349-5.223-3.952-9.742-8.967-11.246-8.248-2.471-10.658-12.989-4.292-18.801 3.865-3.529 5.152-9.163 3.201-14.022-3.21-7.99 3.512-16.428 12.024-15.077 5.172.821 10.376-1.686 12.958-6.241 4.244-7.49 15.035-7.5 19.285 0 2.503 4.418 7.477 6.899 12.496 6.295-6.398 10.975-10.937 22.671-13.373 34.734zm141.139-335.6c8.743 24.023 14.978 47.751 18.194 69.1-6.499 1.741-12.819 3.883-18.937 6.38-11.31-34.421-35.335-90.661-69.068-104.305 27.417-12.829 59.574.697 69.811 28.825zm-96.182 35.008c-6.668-18.321-2.176-38.026 9.981-51.643 26.757-2.612 55.233 47.548 71.765 98.487-15.877 8.34-30.023 19.247-41.793 32.127-14.69-20.425-28.707-48.071-39.953-78.971zm172.773 343.291c2.442 13.583 8.378 26.94 15.317 35.947 7.117 9.241 5.389 22.55-3.852 29.667s-22.55 5.389-29.667-3.851c-11.73-15.23-20.021-35.275-23.437-54.278-.733-4.077-4.631-6.788-8.709-6.055-4.077.733-6.788 4.632-6.055 8.709 1.762 9.8 4.64 19.616 8.407 28.956-6.175 2.72-11.791 4.848-17.849 6.799-5.426-10.069-14.535-17.969-25.616-21.701 8.791-46.312-26.933-88.76-73.477-88.76-11.745 0-22.862 2.729-32.763 7.575 8.484-20.381 24.234-39.191 44.781-53.126 22.663 33.518 67.658 51.382 132.056 51.382 16.826 0 32.692-1.236 47.38-3.655 2.48 18.567-2.647 37.573-14.762 54.977-5.447-3.912-12.945.788-11.754 7.414zm56.769-29.258c11.567 1.502 19.756 12.134 18.255 23.701-1.502 11.566-12.143 19.751-23.701 18.255-9.651-1.253-19.779-4.036-29.721-8.129 9.097-12.107 15.247-25.024 18.3-38.229 7.835 2.958 14.063 4.039 16.867 4.402zm65.306-141.355c0 87.436-99.96 96.876-142.937 96.876-110.702 0-133.939-52.682-133.939-96.876 0-71.177 62.103-129.083 138.438-129.083s138.438 57.907 138.438 129.083zm-77.477-132.21c-6.116-2.496-12.432-4.637-18.928-6.376 3.216-21.35 9.451-45.079 18.194-69.1 10.211-28.056 42.272-41.64 69.716-28.868-29.133 11.737-53.59 57.457-68.982 104.344zm-135.264 90.103c-13.179 0-23.9 10.722-23.9 23.9 0 4.142 3.358 7.5 7.5 7.5s7.5-3.358 7.5-7.5c0-4.907 3.993-8.9 8.9-8.9s8.9 3.993 8.9 8.9c0 4.142 3.358 7.5 7.5 7.5s7.5-3.358 7.5-7.5c0-13.178-10.721-23.9-23.9-23.9zm132.206 31.4c4.142 0 7.5-3.358 7.5-7.5 0-4.907 3.993-8.9 8.9-8.9s8.9 3.993 8.9 8.9c0 4.142 3.358 7.5 7.5 7.5s7.5-3.358 7.5-7.5c0-13.178-10.722-23.9-23.9-23.9s-23.9 10.722-23.9 23.9c0 4.142 3.357 7.5 7.5 7.5z"/></g></svg>