<svg height="384pt" viewBox="0 -40 384 384" width="384pt" xmlns="http://www.w3.org/2000/svg"><path d="m316.984375 17.953125c-15.441406-8.417969-32.921875-17.953125-66.34375-17.953125-33.425781 0-50.90625 9.535156-66.34375 17.953125-13.816406 7.542969-25.761719 14.046875-51.015625 14.046875-25.242188 0-37.167969-6.503906-50.976562-14.039062-15.425782-8.425782-32.90625-17.960938-66.304688-17.960938h-16v32h16c25.238281 0 37.167969 6.503906 50.976562 14.039062 15.421876 8.425782 32.902344 17.960938 66.304688 17.960938 33.421875 0 50.902344-9.535156 66.34375-17.953125 13.824219-7.542969 25.757812-14.046875 51.015625-14.046875 25.253906 0 37.191406 6.503906 51.015625 14.046875 15.441406 8.417969 32.917969 17.953125 66.34375 17.953125h16v-32h-16c-25.257812 0-37.191406-6.503906-51.015625-14.046875zm0 0"/><path d="m316.984375 97.953125c-15.441406-8.417969-32.921875-17.953125-66.34375-17.953125-33.425781 0-50.90625 9.535156-66.34375 17.953125-13.816406 7.542969-25.761719 14.046875-51.015625 14.046875-25.242188 0-37.167969-6.503906-50.976562-14.039062-15.425782-8.425782-32.90625-17.960938-66.304688-17.960938h-16v32h16c25.238281 0 37.167969 6.503906 50.976562 14.039062 15.421876 8.425782 32.902344 17.960938 66.304688 17.960938 33.421875 0 50.902344-9.535156 66.34375-17.953125 13.824219-7.542969 25.757812-14.046875 51.015625-14.046875 25.253906 0 37.191406 6.503906 51.015625 14.046875 15.441406 8.417969 32.917969 17.953125 66.34375 17.953125h16v-32h-16c-25.257812 0-37.191406-6.503906-51.015625-14.046875zm0 0"/><path d="m316.984375 257.953125c-15.441406-8.417969-32.921875-17.953125-66.34375-17.953125-33.425781 0-50.90625 9.535156-66.34375 17.953125-13.816406 7.542969-25.761719 14.046875-51.015625 14.046875-25.242188 0-37.167969-6.503906-50.976562-14.039062-15.425782-8.425782-32.90625-17.960938-66.304688-17.960938h-16v32h16c25.238281 0 37.167969 6.503906 50.976562 14.039062 15.421876 8.425782 32.902344 17.960938 66.304688 17.960938 33.421875 0 50.902344-9.535156 66.34375-17.953125 13.824219-7.542969 25.757812-14.046875 51.015625-14.046875 25.253906 0 37.191406 6.503906 51.015625 14.046875 15.441406 8.417969 32.917969 17.953125 66.34375 17.953125h16v-32h-16c-25.257812 0-37.191406-6.503906-51.015625-14.046875zm0 0"/><path d="m316.984375 177.953125c-15.441406-8.417969-32.921875-17.953125-66.34375-17.953125-33.425781 0-50.90625 9.535156-66.34375 17.953125-13.816406 7.542969-25.761719 14.046875-51.015625 14.046875-25.242188 0-37.167969-6.503906-50.976562-14.039062-15.425782-8.425782-32.90625-17.960938-66.304688-17.960938h-16v32h16c25.238281 0 37.167969 6.503906 50.976562 14.039062 15.421876 8.425782 32.902344 17.960938 66.304688 17.960938 33.421875 0 50.902344-9.535156 66.34375-17.953125 13.824219-7.542969 25.757812-14.046875 51.015625-14.046875 25.253906 0 37.191406 6.503906 51.015625 14.046875 15.441406 8.417969 32.917969 17.953125 66.34375 17.953125h16v-32h-16c-25.257812 0-37.191406-6.503906-51.015625-14.046875zm0 0"/></svg>