<svg id="Layer_1" enable-background="new 0 0 510 510" height="512" viewBox="0 0 510 510" width="512" xmlns="http://www.w3.org/2000/svg"><g><path d="m476.894 268.863c2.05-6.901 3.106-14.099 3.106-21.363 0-41.355-33.645-75-75-75-13.094 0-25.911 3.446-37.167 9.868-27.973-23.64-66.412-31.136-101.237-19.419-2.84-10.004-7.371-19.304-13.263-27.569l32.732-32.732-21.213-21.213-32.732 32.732c-10.842-7.729-23.465-13.109-37.12-15.41v-46.257h-30v46.257c-13.655 2.301-26.278 7.682-37.12 15.41l-32.733-32.732-21.213 21.213 32.732 32.732c-7.729 10.842-13.109 23.465-15.41 37.12h-46.256v30h46.238c2.357 14.186 8.045 27.447 16.596 38.849-38.222 16.827-63.612 55.154-62.816 98.045-25.859 6.671-45.018 30.193-45.018 58.106 0 33.084 26.916 60 60 60h240c39.063 0 67.904-36.954 58.082-75h91.918c33.084 0 60-26.916 60-60 0-22.794-12.885-43.483-33.106-53.637zm-356.894-81.363c0-33.084 26.916-60 60-60 29.514 0 54.101 21.426 59.067 49.536-21.753 15.554-37.344 39.194-42.346 66.491-16.733-8.316-35.89-12.37-55.938-10.618-13.252-11.424-20.783-27.773-20.783-45.409zm180 240h-240c-16.542 0-30-13.458-30-30s13.458-30 30-30h18.977l-2.933-17.481c-7.731-46.122 27.961-87.519 73.956-87.519 19.189 0 37.692 7.454 51.564 20.579 2.763 2.614 2.013 1.886 13.43 14.322l.001-.001v.001l10.995-9.288c8.102-6.844 18.404-10.613 29.01-10.613 24.813 0 45 20.187 45 45 0 8.051-2.158 15.955-6.242 22.858l-11.356 19.196h.001l-.001.001c23.024 3.458 22.265 3.22 24.515 3.752 13.267 3.139 23.083 15.236 23.083 29.193 0 16.542-13.458 30-30 30zm150-75h-110.333c-3.931-3.459-8.437-6.459-12.773-8.637 1.853-6.24 2.837-12.594 3.057-18.642 1.754-48.287-42.236-85.882-89.834-76.22-5.011 1.016-10.022 2.59-14.584 4.54 4.441-37.146 36.144-66.041 74.467-66.041 20.942 0 41.084 8.857 55.261 24.299l9.734 10.602 10.995-9.288c8.102-6.844 18.404-10.613 29.01-10.613 24.813 0 45 20.187 45 45 0 8.051-2.158 15.955-6.242 22.858l-11.356 19.196 22.063 3.277c14.557 2.164 25.535 14.919 25.535 29.669 0 16.542-13.458 30-30 30z"/></g></svg>