<svg id="Layer_1" enable-background="new 0 0 512.375 512.375" height="512" viewBox="0 0 512.375 512.375" width="512" xmlns="http://www.w3.org/2000/svg"><g><path d="m512.236 219.815c0-41.891-25.95-78.534-64.379-92.783-4.538-70.814-63.593-127.032-135.533-127.032-25.815 0-50.934 7.277-72.642 21.045-16.3 10.338-30.15 23.963-40.707 39.937-12.642-6.789-26.869-10.42-41.372-10.42-23.136 0-44.943 8.953-61.402 25.208-13.572 13.405-22.229 30.507-25.015 49.06-18.286 5.387-34.791 16.028-47.322 30.683-15.3 17.894-23.726 40.73-23.726 64.301 0 52.073 40.411 94.883 91.52 98.72v150.247c0 8.284 6.716 15 15 15s15-6.716 15-15v-149.964h123.999v149.965c0 8.284 6.716 15 15 15s15-6.716 15-15v-149.965h123.999v149.965c0 8.284 6.716 15 15 15s15-6.716 15-15v-151.335c46.801-7.846 82.58-48.636 82.58-97.632zm-99.002 69.002h-314.094c-38.047 0-69.001-30.954-69.001-69.001 0-33.867 24.201-62.487 57.545-68.051 7.155-1.194 12.431-7.337 12.53-14.59.427-31.216 26.172-56.612 57.39-56.612 13.41 0 26.461 4.727 36.749 13.31 3.529 2.945 8.214 4.11 12.71 3.158 4.497-.95 8.31-3.909 10.347-8.029 17.986-36.394 54.356-59.002 94.914-59.002 58.346 0 105.814 47.468 105.814 105.813 0 .697-.014 1.39-.027 2.084-.135 7.028 4.629 13.208 11.46 14.865 31.008 7.523 52.665 35.096 52.665 67.053 0 38.048-30.954 69.002-69.002 69.002z"/><path d="m183.658 365.139c-8.284 0-15 6.716-15 15v117.235c0 8.284 6.716 15 15 15s15-6.716 15-15v-117.235c0-8.284-6.716-15-15-15z"/><path d="m337.656 364.535c-8.284 0-15 6.716-15 15v117.235c0 8.284 6.716 15 15 15s15-6.716 15-15v-117.235c0-8.285-6.716-15-15-15z"/></g></svg>